<svg width="1194" height="165" viewBox="0 0 1194 165" fill="none" xmlns="http://www.w3.org/2000/svg">
<path d="M423 74.9979C257.8 7.7979 44.5 -2.66876 -41.5 0.497903V213.498H1377L1341 40.9979C1326.67 41.8313 1264.9 42.9979 1132.5 40.9979C1000.1 38.9979 793.333 91.8313 706.5 118.498C680.833 131.998 588.2 142.198 423 74.9979Z" fill="#FEEFC4"/>
<path d="M132.401 107L128.933 94.4727C126.8 86.4766 126.533 80.9427 127.64 80.5C128.974 79.9669 137.202 91.5408 139.869 92.0739C142.003 89.9416 141.203 68.0855 144.136 72.6166C146.484 76.2415 150.573 86.535 151.64 90C158.131 85.7354 167.14 76.5 165.474 81.6789C163.76 87.0086 159.873 100.337 159.34 107H132.401Z" fill="#FDE193"/>
<path d="M1049.39 97L1052.35 88.0519C1054.17 82.3404 1054.4 78.3876 1053.45 78.0714C1052.32 77.6907 1045.3 85.9577 1043.02 86.3385C1041.2 84.8154 1041.88 69.2039 1039.38 72.4404C1037.38 75.0297 1033.89 82.3821 1032.98 84.8571C1027.44 81.811 1019.75 75.2143 1021.17 78.9135C1022.63 82.7204 1025.95 92.2404 1026.41 97H1049.39Z" fill="#FDE193"/>
<path d="M721.593 85C721.377 79.1667 724.833 70.7407 719 50C727.296 58.8148 730.667 77.0062 731.315 85H721.593Z" fill="#FDE193"/>
<path d="M730.667 85C731.963 79.8148 732.611 69.4444 739.741 53.2407C737.667 60.5 738.012 77.6543 738.444 85H730.667Z" fill="#FDE193"/>
<path d="M1194 111.558C747.003 57.8651 182.277 100.338 0 111.558V189H1194V111.558Z" fill="#FDE193"/>
</svg>
