<?xml version="1.0" encoding="UTF-8"?>
<svg id="Layer_1" data-name="Layer 1" xmlns="http://www.w3.org/2000/svg" version="1.1" viewBox="0 0 1194 255">
  <path d="M1194,40.2C517.2,228,204.7-111.3,0,40.2v187.8h1194V40.2Z" fill="#66ca63" stroke-width="0"/>
  <path d="M1194,101.6C747-4.7,182.3,79.4,0,101.6v153.4h1194V101.6Z" fill="#a3e975" stroke-width="0"/>
  <path d="M151.3,198l-3.5-12.5c-2.1-8-2.4-13.5-1.3-14,1.3-.5,9.6,11,12.2,11.6,2.1-2.1,1.3-24,4.3-19.5,2.3,3.6,6.4,13.9,7.5,17.4,6.5-4.3,15.5-13.5,13.8-8.3-1.7,5.3-5.6,18.7-6.1,25.3h-26.9Z" fill="#6bd068" fill-opacity=".7" stroke-width="0"/>
  <path d="M738.4,146l3-8.9c1.8-5.7,2-9.7,1.1-10-1.1-.4-8.2,7.9-10.4,8.3-1.8-1.5-1.1-17.1-3.6-13.9-2,2.6-5.5,9.9-6.4,12.4-5.5-3-13.2-9.6-11.8-5.9,1.5,3.8,4.8,13.3,5.2,18.1h23Z" fill="#6bd068" fill-opacity=".7" stroke-width="0"/>
  <path d="M1124.6,228c-.2-5.8,3.2-14.3-2.6-35,8.3,8.8,11.7,27,12.3,35h-9.7Z" fill="#6bd068" fill-opacity=".7" stroke-width="0"/>
  <path d="M1133.7,228c1.3-5.2,1.9-15.6,9.1-31.8-2.1,7.3-1.7,24.4-1.3,31.8h-7.8Z" fill="#6bd068" fill-opacity=".7" stroke-width="0"/>
</svg>