<?xml version="1.0" encoding="UTF-8"?>
<svg id="Layer_1" data-name="Layer 1" xmlns="http://www.w3.org/2000/svg" version="1.1" viewBox="0 0 404 128">
  <path d="M380.8,98.3l-5.3-6.7,4.3-5.1c1.6-1.9,2.3-3.9,2.3-6,0-2.2-1-4.1-2.6-5.5-1.6-1.4-3.6-2.1-6.1-2.1s-4.2.5-5.8,1.6c-1.1.8-2.3,1.9-3.6,3.4l-.4.4v-8.8c0-3.6-1.4-5.7-2.6-6.9-1.2-1.2-3.3-2.5-6.8-2.5s-5.6,1.4-6.7,2.6c-1.7,1.7-2.6,4-2.6,6.8v25.4c-.2,0-.4,0-.5,0h-.4c-.2,0-.4,0-.5,0,0,0,0,0,0-.1v-25.3c0-3.6-1.4-5.7-2.6-6.9-1.2-1.2-3.3-2.5-6.8-2.5s-5.6,1.4-6.7,2.6c-1.7,1.7-2.6,4-2.6,6.8v10.3c-1.5-2.3-3.6-4.1-6.2-5.3-2.6-1.2-5.9-1.8-9.7-1.8s-3.3.1-5.1.4c-1,.2-2.1.4-3.2.7.7-1.1,1.2-2.7,1.2-4.7,0-3.2-1.3-5.2-2.4-6.2-1.1-1-3-2.3-6.2-2.3h-29.9c-2.5,0-4.6.8-6.2,2.2h0s0,0,0,0c-1.1,1.1-2.3,3-2.3,6.2s1,4.7,2,5.8c0,0,0,0,0,0-1.7-.8-3.5-1.4-5.3-1.7-1.7-.3-3.6-.5-5.6-.5-3.2,0-6.1.5-8.6,1.6-2.3.9-4.3,2.3-5.8,4,0,0,0,0,0,0-.8-1.5-2.1-2.6-3.8-3.3-1.7-.8-3.5-1.4-5.3-1.7-1.7-.3-3.6-.5-5.6-.5-3.2,0-6.1.5-8.6,1.6-2.7,1-4.9,2.6-6.5,4.7-.3.4-.6.9-.9,1.3-.5-.8-1.1-1.5-1.8-2.2-1.7-1.8-3.7-3.1-6.1-4-2.3-.9-4.8-1.4-7.4-1.4s-7,.8-10,2.5c-2.9,1.6-5.3,3.9-7,6.9-1.7,2.9-2.5,6.2-2.5,9.9-.5,0-1-.2-1.5-.2-1.2,0-2.5.3-3.9.9h0s0,0,0,0c-.9.4-1.8.7-2.6,1-.9.2-1.8.3-2.5.3-1.8,0-3.2-.3-4.3-.9-.9-.5-1.6-1.3-2.1-2.4-.6-1.3-.9-3-.9-5s.3-3.7.9-5c.5-1,1.1-1.8,2.1-2.3,1.1-.6,2.5-.9,4.3-.9s1.8.1,2.6.3h0s0,0,0,0c.9.2,1.8.5,2.8,1,1.3.6,2.5.9,3.8.9s1.3,0,1.9-.3h0s0,0,0,0c1.7-.5,3.1-1.6,4.2-3,1-1.3,1.5-2.8,1.8-4.4.3-1.8,0-3.5-.8-5.1-.8-1.7-2.2-3.1-4-4.1-1.9-1-4-1.8-6.4-2.3-2.2-.5-4.4-.7-6.5-.7-3.9,0-7.6.6-10.8,1.8-3.3,1.2-6.1,3-8.5,5.3-2.3,2.3-4.1,5.1-5.4,8.3h0s0,0,0,0c-1.2,3.1-1.8,6.6-1.8,10.3s0,2,.1,3l-10.2-21.9h0s0,0,0,0c-1.1-2.2-2.4-3.8-4-4.9-1.7-1.2-3.7-1.8-5.8-1.8s-4.1.6-5.9,1.8h0s0,0,0,0c-1.6,1.1-3,2.8-4,5l-12.6,27.2-12.7-27.2h0s0,0,0,0c-1.1-2.2-2.4-3.8-4-4.9-1.7-1.2-3.7-1.8-5.8-1.8s-4.1.6-5.9,1.8h0s0,0,0,0c-1.6,1.1-3,2.8-4,5l-14.9,32.2h0s0,0,0,0c-.9,2-1.2,4-.8,5.8.4,2,1.5,3.7,3.2,4.9h0s0,0,0,0c1.5,1,3.3,1.5,5.3,1.5s4.7-.7,6.2-2.2c1.2-1.1,2.2-2.6,3.1-4.7h0s0,0,0,0l.9-2.1h13.6l.9,2.1c.9,2.2,2,3.8,3.4,5h0s0,0,0,0c1.6,1.3,3.7,2,6.3,2s3.8-.5,5.3-1.5c0,0,0,0,0,0h0c1.5,1,3.3,1.5,5.3,1.5s4.7-.7,6.2-2.2c1.2-1.1,2.2-2.6,3.1-4.7h0s0,0,0,0l.9-2.1h13.6l.9,2.1c.9,2.2,2,3.8,3.4,5h0s0,0,0,0c1.6,1.3,3.7,2,6.3,2s3.8-.5,5.3-1.5c1.7-1.2,2.8-2.9,3.2-5,0-.5.1-1.1.1-1.6,1.8,2.1,4,3.8,6.5,5.1,3.9,2.1,8.6,3.2,13.9,3.2s4.7-.3,7-.8c2.4-.6,4.5-1.4,6.3-2.4,1.3-.7,2.3-1.6,3-2.7,1.4,1.4,3.1,2.7,5.1,3.6h0s0,0,0,0c3.2,1.5,6.9,2.2,11.1,2.2s3.7-.2,5.5-.6c1.9-.4,3.7-.9,5.3-1.7,1-.5,1.9-1.1,2.6-1.8.8.8,1.8,1.4,2.9,1.9,1.8.8,3.8,1.4,5.9,1.7,2,.3,4,.5,6,.5,4.9,0,9.1-1.1,12.2-3.4.5-.4,1-.8,1.5-1.3.9,1.1,2,1.9,3.5,2.5,1.8.8,3.8,1.4,5.9,1.7,2,.3,4,.5,6,.5,4.9,0,9.1-1.1,12.2-3.4,3.5-2.6,5.4-6.3,5.4-10.8s-1.1-6.2-3.3-8.3c-.3-.3-.6-.5-.9-.8.7-.5,1.2-1.1,1.7-1.8.8-1.2,1.3-2.5,1.4-3.8.2-1.6-.1-3.1-.9-4.5-.3-.5-.6-.9-1-1.3,1.1.5,2.4.7,3.9.7h5.4v24.3c0,3.5,1.4,5.7,2.6,6.9h0s0,0,0,0c1.2,1.2,3.4,2.6,6.9,2.6s5.3-.9,7-2.7h0s0,0,0,0c1.6-1.8,2.4-4.1,2.4-6.8v-24.3h5.4c.2,0,.3,0,.4,0,0,0-.2.2-.2.3h0c0,0,0,.1,0,.1-.9,1.3-1.4,2.8-1.4,4.3h0v.2c0,1.5.4,2.9,1.2,4.2h0c0,0,0,.1,0,.1.4.6.9,1.1,1.4,1.6-.7.5-1.3,1-1.8,1.6-1.8,2-2.7,4.6-2.7,7.8s.7,5.1,2.1,7.2h0c0,0,0,.1,0,.1,1.4,2,3.3,3.6,5.6,4.7,2.3,1.1,4.9,1.7,7.8,1.7s3.9-.4,5.6-1.1c.5-.2,1-.5,1.5-.8,1.2.9,3.1,1.8,5.8,1.8s5.5-1.5,6.6-2.7c.9-1,1.6-2.3,2-3.7.4.8.9,1.5,1.4,2.1h0s0,0,0,0c2.6,2.9,6.5,4.4,11.5,4.4s1.4,0,2.2-.2c.6,0,1-.1,1.3-.2h0s0,0,0,0c1.7-.3,3.1-1,4.2-1.9,1.2,1.1,3.2,2.2,6.3,2.2,4.6,0,7.9-2.3,9-6.2l.9,1.1c1.3,1.6,2.5,2.8,3.9,3.7h0s0,0,0,0c1.6.9,3.5,1.4,5.9,1.4s4.1-.6,5.6-1.8c1.7-1.3,2.8-3,3.1-5.1.2-1.5,0-3.9-1.9-6.4Z" fill="#fff" stroke-width="0"/>
  <path d="M9.8,38.2l30.4,26.1-11.9,9.6L9.8,38.2Z" fill="#ead300" stroke-width="0"/>
  <ellipse cx="325.1" cy="43" rx="3" ry="4" fill="#9f00ea" stroke-width="0"/>
  <circle cx="47.1" cy="29" r="8" fill="#eaa900" stroke-width="0"/>
  <polygon points="342.4 41 349.1 37.8 353.4 48.5 346.6 51.8 342.4 41" fill="#ea0000" stroke-width="0"/>
  <polygon points="43.1 52 31.1 28.9 39 25 51.1 48.1 43.1 52" fill="#ea0000" stroke-width="0"/>
  <path d="M1.1,16.6s14.4-7,17.7-3.3c1.8,2,3.1,4.4,1.5,6.4-1.2,1.5-3,1.7-5.1,1.4-4.4-.8-4.4-6.8-2.6-10.5,2.5-5.1,15.5-2.1,15.5-2.1" fill="none" stroke="#84e847" stroke-width="1.2"/>
  <path d="M373.3,40s-1.2-6.7,2.2-8.1c2.9-1.1,5.3,3.9,7.7,2.1,2.4-1.8-3.6-4.7-1.6-6.9,2-2.3,8.5,0,8.5,0" fill="none" stroke="#005eea" stroke-width="1.2"/>
  <path d="M388.7,59c3.1-2.6,1.4-9.7,4.3-6.2,2.9,3.5,2.7,8.4-.4,10.9s-8,1.9-10.8-1.6c-2.9-3.5,3.8-.6,6.9-3.2Z" fill="#005eea" stroke-width="0"/>
  <path d="M352.6,10l2.8,8.6h9.1l-7.3,5.3,2.8,8.6-7.3-5.3-7.3,5.3,2.8-8.6-7.3-5.3h9.1l2.8-8.6Z" fill="#84e847" stroke-width="0"/>
  <path d="M367.1,44l1.6,5.2h5.1l-4.1,3.2,1.6,5.2-4.1-3.2-4.1,3.2,1.6-5.2-4.1-3.2h5.1l1.6-5.2Z" fill="#ead300" stroke-width="0"/>
  <path d="M60.7,51.1l1.1-9.9,7.5,5.1.9-8.3,6.8,5,2.1-8.9" fill="none" stroke="#005eea"/>
  <g opacity=".9">
    <path d="M114.7,68.7c-.8-1.6-1.7-2.7-2.7-3.4-1-.7-2.2-1.1-3.5-1.1s-2.6.4-3.7,1.1c-1,.7-1.9,1.9-2.6,3.4l-14.9,32.2c-.6,1.3-.7,2.4-.5,3.5.2,1,.7,1.8,1.6,2.4.8.6,1.9.8,3.1.8s2.7-.4,3.5-1.1c.8-.7,1.5-1.9,2.2-3.5l1.9-4.6h18.9l1.9,4.6c.7,1.6,1.4,2.8,2.3,3.5.9.7,2.1,1.1,3.7,1.1s2.2-.3,3-.8c.8-.6,1.3-1.4,1.5-2.4.2-1,0-2.2-.7-3.5l-14.9-32.2ZM108.4,76.2h.1l5.8,13.7h-11.7l5.8-13.7Z" fill="#f9aa33" stroke-width="0"/>
    <path d="M167.6,97.5c-.6-.7-1.3-1.2-2.3-1.4-.9-.2-2-.1-3.2.4-1.2.6-2.3,1-3.5,1.3-1.2.2-2.3.4-3.4.4-2.5,0-4.6-.5-6.2-1.4-1.6-1-2.9-2.3-3.7-4.1-.8-1.8-1.3-4.1-1.3-6.7s.4-4.9,1.3-6.7c.8-1.8,2.1-3.2,3.7-4.1,1.7-1,3.8-1.4,6.2-1.4s2.5.2,3.7.5c1.2.3,2.4.7,3.6,1.3,1,.5,2,.7,2.9.4.9-.3,1.6-.8,2.2-1.6s.9-1.6,1-2.6c.2-1,0-1.9-.4-2.8-.4-.9-1.2-1.7-2.3-2.3-1.5-.8-3.3-1.5-5.3-1.9-2-.4-3.9-.7-5.7-.7-3.5,0-6.6.5-9.4,1.6-2.8,1-5.1,2.5-7.1,4.4-1.9,1.9-3.4,4.2-4.4,6.9-1,2.7-1.5,5.7-1.5,8.9s.9,8.2,2.6,11.5c1.8,3.3,4.4,5.8,7.7,7.6,3.4,1.8,7.4,2.7,12.1,2.7s4.1-.2,6.1-.7c2.1-.5,3.8-1.1,5.2-2,1-.6,1.8-1.3,2.2-2.2.4-.9.6-1.8.4-2.8-.2-1-.5-1.8-1.1-2.5Z" fill="#f9aa33" stroke-width="0"/>
    <path d="M377.7,100.8l-7.4-9.2,6.4-7.6c.9-1.1,1.4-2.2,1.3-3.2,0-1.1-.5-2-1.3-2.7-.8-.7-1.9-1.1-3.4-1.1s-2.7.3-3.5.9c-.8.6-1.8,1.4-2.8,2.6l-7.3,8.9h-.1v-19.8c0-1.8-.5-3.1-1.4-4-.9-.9-2.2-1.4-4-1.4s-3,.5-3.9,1.4c-.9.9-1.4,2.3-1.4,4v32.6c0,1.8.5,3.1,1.4,4s2.2,1.4,3.9,1.4c3.6,0,5.4-1.8,5.4-5.4v-7.4h.1l7.5,9.2c1,1.2,1.9,2.2,2.9,2.8,1,.6,2.2.8,3.8.8s2.4-.3,3.2-1c.9-.6,1.4-1.5,1.6-2.5.2-1.1-.2-2.2-1.1-3.3Z" fill="#f9aa33" stroke-width="0"/>
    <path d="M316.9,78.3c-2.1-1-4.8-1.4-8.1-1.4s-2.9.1-4.5.4c-1.6.2-3.4.7-5.3,1.4-1,.4-1.8,1-2.3,1.7-.5.7-.7,1.5-.8,2.3,0,.8.2,1.5.6,2.2.4.7,1,1.2,1.8,1.4.8.3,1.7.2,2.8-.2,1.5-.6,2.8-.9,4-1.1,1.2-.2,2.3-.4,3.2-.4,1.8,0,3.1.3,3.8.9.8.6,1.1,1.6,1.1,3.1v.8h-2.3c-4.1,0-7.4.3-9.9.8-2.5.5-4.3,1.4-5.4,2.6-1.1,1.2-1.7,2.9-1.7,5.1s.5,3.6,1.4,5c1,1.4,2.4,2.6,4.1,3.4,1.8.8,3.8,1.3,6.1,1.3s2.8-.3,4-.8c1.2-.5,2.1-1.2,2.8-2.2.5-.6.8-1.3,1.1-2,0,1.5.5,2.6,1.2,3.5.9.9,2.1,1.4,3.8,1.4s2.8-.5,3.7-1.4c.8-.9,1.3-2.3,1.3-4v-12.1c0-3-.5-5.5-1.6-7.4-1-2-2.6-3.4-4.8-4.3ZM312.5,98.2c-.5.8-1.1,1.4-1.9,1.8-.8.4-1.6.7-2.6.7s-2.2-.3-2.9-.9c-.6-.6-1-1.4-1-2.3s.2-1.3.7-1.7c.5-.5,1.2-.8,2.2-1,1-.2,2.3-.4,3.9-.4h2.3v1.1c0,1-.2,2-.7,2.8Z" fill="#f9aa33" stroke-width="0"/>
    <path d="M69.6,68.7c-.8-1.6-1.7-2.7-2.7-3.4-1-.7-2.2-1.1-3.5-1.1s-2.6.4-3.7,1.1c-1,.7-1.9,1.9-2.6,3.4l-14.9,32.2c-.6,1.3-.7,2.4-.5,3.5.2,1,.7,1.8,1.6,2.4.8.6,1.9.8,3.1.8s2.7-.4,3.5-1.1c.8-.7,1.5-1.9,2.2-3.5l1.9-4.6h18.9l1.9,4.6c.7,1.6,1.4,2.8,2.3,3.5.9.7,2.1,1.1,3.7,1.1s2.2-.3,3-.8c.8-.6,1.3-1.4,1.5-2.4.2-1,0-2.2-.7-3.5l-14.9-32.2ZM63.3,76.2h.1l5.8,13.7h-11.7l5.8-13.7Z" fill="#f9aa33" stroke-width="0"/>
    <path d="M344.4,98.9c-.4,0-.7,0-1,.2-.3,0-.6,0-.8,0-.9,0-1.7-.3-2.3-1-.6-.7-.8-1.8-.8-3.2v-25.3c0-1.8-.5-3.1-1.4-4-.9-.9-2.2-1.4-4-1.4s-3,.5-3.9,1.4-1.4,2.3-1.4,4v25.7c0,4.2.9,7.3,2.7,9.4,1.8,2,4.7,3.1,8.5,3.1s1.1,0,1.7-.1c.6,0,1.1-.1,1.4-.2,1.2-.2,2-.6,2.6-1.3.6-.7.8-1.8.8-3.2s-.2-2.7-.5-3.2c-.3-.5-.8-.8-1.5-.8Z" fill="#f9aa33" stroke-width="0"/>
    <path d="M297.8,69.2c0-1.5-.4-2.6-1.2-3.4-.8-.8-1.9-1.1-3.4-1.1h-29.9c-1.5,0-2.6.4-3.4,1.1-.8.8-1.1,1.9-1.1,3.4s.4,2.6,1.1,3.4c.8.8,1.9,1.1,3.4,1.1h9.4v28.3c0,1.8.5,3.1,1.4,4.1,1,1,2.3,1.4,4.1,1.4s3.2-.5,4.1-1.4c.9-1,1.4-2.4,1.4-4.1v-28.3h9.4c1.5,0,2.6-.4,3.4-1.1s1.2-1.9,1.2-3.4Z" fill="#f9aa33" stroke-width="0"/>
    <path d="M196.1,81c-1.3-1.4-2.8-2.4-4.6-3.1-1.8-.7-3.8-1.1-6-1.1s-5.7.7-8,2c-2.3,1.3-4.2,3.1-5.5,5.4-1.3,2.3-2,4.9-2,8s.7,5.9,2.1,8.2c1.4,2.3,3.4,4.1,6,5.4,2.6,1.2,5.8,1.9,9.4,1.9s3.2-.2,4.7-.5c1.6-.3,3.1-.8,4.5-1.4.9-.4,1.6-1,2-1.7.4-.8.6-1.5.5-2.3,0-.8-.3-1.5-.7-2.1-.4-.6-1-1.1-1.7-1.3-.8-.3-1.7-.2-2.7.2-1,.4-2.1.7-3.3,1-1.1.2-2.1.3-3,.3-2.6,0-4.6-.6-5.9-1.8-.8-.8-1.4-2-1.7-3.6h17.1c1,0,1.7-.2,2.1-.5.4-.4.7-1,.7-1.8,0-2.3-.3-4.4-1-6.3-.6-1.9-1.6-3.5-2.9-4.8ZM182.7,84.6c.9-.6,2-.9,3.2-.9s2.1.2,2.9.7c.8.5,1.4,1.2,1.8,2.1.3.8.5,1.7.6,2.8h-11.1c.1-.8.3-1.6.6-2.2.5-1.1,1.2-2,2-2.5Z" fill="#f9aa33" stroke-width="0"/>
    <path d="M250.4,89.4l-6.7-1.1c-.8-.1-1.3-.3-1.7-.7-.4-.4-.5-.8-.5-1.3s.3-1.2,1-1.7,1.8-.7,3.5-.7,1.8.1,2.8.4c1,.2,2.2.6,3.5,1.1,1,.3,1.8.4,2.5.2.7-.2,1.3-.7,1.7-1.3.4-.6.7-1.3.8-2,0-.8,0-1.5-.4-2.2s-1-1.2-1.9-1.6c-1.4-.7-2.8-1.1-4.3-1.4-1.5-.3-3.1-.4-4.9-.4-2.7,0-5.1.4-7.1,1.3-2,.8-3.7,2-4.9,3.5-1.2,1.5-1.7,3.3-1.7,5.3s.7,4.1,2,5.5c1.4,1.4,3.3,2.3,5.8,2.7l6.7,1.1c.8.1,1.3.3,1.7.7.4.3.7.8.7,1.4s-.3,1.2-1,1.7c-.6.4-1.7.6-3.2.6s-2.5-.1-3.9-.4c-1.3-.3-2.8-.7-4.5-1.3-.9-.3-1.7-.3-2.4,0-.7.2-1.2.7-1.7,1.3-.4.6-.6,1.3-.7,2,0,.8.2,1.5.6,2.2.4.7,1.2,1.2,2.2,1.6,1.5.7,3.1,1.1,4.9,1.4,1.8.3,3.6.4,5.4.4,4.1,0,7.4-.9,9.9-2.6,2.5-1.8,3.7-4.3,3.7-7.6s-.7-4.1-2.1-5.4c-1.4-1.4-3.3-2.2-5.9-2.6Z" fill="#f9aa33" stroke-width="0"/>
    <path d="M221.3,89.4l-6.7-1.1c-.8-.1-1.3-.3-1.7-.7-.4-.4-.5-.8-.5-1.3s.3-1.2,1-1.7,1.8-.7,3.5-.7,1.8.1,2.8.4c1,.2,2.2.6,3.5,1.1,1,.3,1.8.4,2.5.2.7-.2,1.3-.7,1.7-1.3.4-.6.7-1.3.8-2,0-.8,0-1.5-.4-2.2s-1-1.2-1.9-1.6c-1.4-.7-2.8-1.1-4.3-1.4-1.5-.3-3.1-.4-4.9-.4-2.7,0-5.1.4-7.1,1.3-2,.8-3.7,2-4.9,3.5-1.2,1.5-1.7,3.3-1.7,5.3s.7,4.1,2,5.5c1.4,1.4,3.3,2.3,5.8,2.7l6.7,1.1c.8.1,1.3.3,1.7.7.4.3.7.8.7,1.4s-.3,1.2-1,1.7c-.6.4-1.7.6-3.2.6s-2.5-.1-3.9-.4c-1.3-.3-2.8-.7-4.5-1.3-.9-.3-1.7-.3-2.4,0-.7.2-1.2.7-1.7,1.3-.4.6-.6,1.3-.7,2,0,.8.2,1.5.6,2.2.4.7,1.2,1.2,2.2,1.6,1.5.7,3.1,1.1,4.9,1.4,1.8.3,3.6.4,5.4.4,4.1,0,7.4-.9,9.9-2.6,2.5-1.8,3.7-4.3,3.7-7.6s-.7-4.1-2.1-5.4c-1.4-1.4-3.3-2.2-5.9-2.6Z" fill="#f9aa33" stroke-width="0"/>
  </g>
</svg>